<?xml version="1.0" encoding="UTF-8" standalone="no"?>
<!DOCTYPE svg PUBLIC "-//W3C//DTD SVG 1.1//EN"
 "http://www.w3.org/Graphics/SVG/1.1/DTD/svg11.dtd">
<!-- Generated by graphviz version 2.42.4 (0)
 -->
<!-- Title: G Pages: 1 -->
<svg width="949pt" height="733pt"
 viewBox="0.00 0.00 949.10 732.60" xmlns="http://www.w3.org/2000/svg" xmlns:xlink="http://www.w3.org/1999/xlink">
<g id="graph0" class="graph" transform="scale(1 1) rotate(0) translate(28.8 703.8)">
<title>G</title>
<polygon fill="#f5f8fb" stroke="transparent" points="-28.8,28.8 -28.8,-703.8 920.3,-703.8 920.3,28.8 -28.8,28.8"/>
<!-- persona -->
<g id="node1" class="node">
<title>persona</title>
<text text-anchor="start" x="123" y="-120.4" font-family="IBM Plex Mono" font-weight="bold" font-size="7.00" fill="#03253e">persona</text>
<polygon fill="none" stroke="#1f4a6b" points="73.5,-113 73.5,-115 205.5,-115 205.5,-113 73.5,-113"/>
<text text-anchor="start" x="75.5" y="-105.4" font-family="IBM Plex Mono" font-size="7.00" fill="#33454f">&#45; persona_id(PK) : INTEGER</text>
<text text-anchor="start" x="75.5" y="-93.4" font-family="IBM Plex Mono" font-size="7.00" fill="#33454f">&#45; schluessel : VARCHAR(60)</text>
<text text-anchor="start" x="75.5" y="-81.4" font-family="IBM Plex Mono" font-size="7.00" fill="#33454f">&#45; name : VARCHAR(120)</text>
<text text-anchor="start" x="75.5" y="-69.4" font-family="IBM Plex Mono" font-size="7.00" fill="#33454f">&#45; rolle : VARCHAR(120)</text>
<text text-anchor="start" x="75.5" y="-57.4" font-family="IBM Plex Mono" font-size="7.00" fill="#33454f">&#45; haltung : VARCHAR(120)</text>
<text text-anchor="start" x="75.5" y="-45.4" font-family="IBM Plex Mono" font-size="7.00" fill="#33454f">&#45; verhalten : TEXT</text>
<text text-anchor="start" x="75.5" y="-33.4" font-family="IBM Plex Mono" font-size="7.00" fill="#33454f">&#45; trainingsziel : TEXT</text>
<text text-anchor="start" x="75.5" y="-21.4" font-family="IBM Plex Mono" font-size="7.00" fill="#33454f">&#45; schwierigkeitsgrad : VARCHAR(40)</text>
<text text-anchor="start" x="75.5" y="-9.4" font-family="IBM Plex Mono" font-size="7.00" fill="#33454f">&#45; aktiv : BOOLEAN</text>
<polygon fill="none" stroke="#1f4a6b" points="72.5,-4 72.5,-128 206.5,-128 206.5,-4 72.5,-4"/>
</g>
<!-- persona_einwand -->
<g id="node2" class="node">
<title>persona_einwand</title>
<text text-anchor="start" x="26" y="-283.4" font-family="IBM Plex Mono" font-weight="bold" font-size="7.00" fill="#03253e">persona_einwand</text>
<polygon fill="none" stroke="#1f4a6b" points="9.5,-276 9.5,-278 112.5,-278 112.5,-276 9.5,-276"/>
<text text-anchor="start" x="11.5" y="-268.4" font-family="IBM Plex Mono" font-size="7.00" fill="#33454f">&#45; einwand_id(PK) : INTEGER</text>
<text text-anchor="start" x="11.5" y="-256.4" font-family="IBM Plex Mono" font-size="7.00" fill="#33454f">&#45; persona_id(FK) : INTEGER</text>
<text text-anchor="start" x="11.5" y="-244.4" font-family="IBM Plex Mono" font-size="7.00" fill="#33454f">&#45; reihenfolge : INTEGER</text>
<text text-anchor="start" x="11.5" y="-232.4" font-family="IBM Plex Mono" font-size="7.00" fill="#33454f">&#45; text : TEXT</text>
<polygon fill="none" stroke="#1f4a6b" points="8,-227 8,-291 113,-291 113,-227 8,-227"/>
</g>
<!-- persona_einwand&#45;&gt;persona -->
<g id="edge1" class="edge">
<title>persona_einwand&#45;&gt;persona</title>
<path fill="none" stroke="#325f7f" d="M92.75,-212.7C92.75,-212.7 92.75,-140.22 92.75,-140.22"/>
<polygon fill="#325f7f" stroke="#325f7f" points="92.75,-142.22 97.25,-132.22 92.75,-137.22 92.75,-132.22 92.75,-132.22 92.75,-132.22 92.75,-137.22 88.25,-132.22 92.75,-142.22 92.75,-142.22"/>
<ellipse fill="none" stroke="#325f7f" cx="92.75" cy="-218.7" rx="4" ry="4"/>
</g>
<!-- szenario -->
<g id="node3" class="node">
<title>szenario</title>
<text text-anchor="start" x="543" y="-96.4" font-family="IBM Plex Mono" font-weight="bold" font-size="7.00" fill="#03253e">szenario</text>
<polygon fill="none" stroke="#1f4a6b" points="508.5,-89 508.5,-91 611.5,-91 611.5,-89 508.5,-89"/>
<text text-anchor="start" x="510.5" y="-81.4" font-family="IBM Plex Mono" font-size="7.00" fill="#33454f">&#45; szenario_id(PK) : INTEGER</text>
<text text-anchor="start" x="510.5" y="-69.4" font-family="IBM Plex Mono" font-size="7.00" fill="#33454f">&#45; schluessel : VARCHAR(60)</text>
<text text-anchor="start" x="510.5" y="-57.4" font-family="IBM Plex Mono" font-size="7.00" fill="#33454f">&#45; typ : VARCHAR(60)</text>
<text text-anchor="start" x="510.5" y="-45.4" font-family="IBM Plex Mono" font-size="7.00" fill="#33454f">&#45; titel : VARCHAR(160)</text>
<text text-anchor="start" x="510.5" y="-33.4" font-family="IBM Plex Mono" font-size="7.00" fill="#33454f">&#45; beschreibung : TEXT</text>
<polygon fill="none" stroke="#1f4a6b" points="507,-28 507,-104 612,-104 612,-28 507,-28"/>
</g>
<!-- sprache -->
<g id="node4" class="node">
<title>sprache</title>
<text text-anchor="start" x="371" y="-78.4" font-family="IBM Plex Mono" font-weight="bold" font-size="7.00" fill="#03253e">sprache</text>
<polygon fill="none" stroke="#1f4a6b" points="325.5,-71 325.5,-73 449.5,-73 449.5,-71 325.5,-71"/>
<text text-anchor="start" x="327.5" y="-63.4" font-family="IBM Plex Mono" font-size="7.00" fill="#33454f">&#45; sprache_code(PK) : VARCHAR(8)</text>
<text text-anchor="start" x="327.5" y="-51.4" font-family="IBM Plex Mono" font-size="7.00" fill="#33454f">&#45; bezeichnung : VARCHAR(60)</text>
<polygon fill="none" stroke="#1f4a6b" points="324.5,-46 324.5,-86 450.5,-86 450.5,-46 324.5,-46"/>
</g>
<!-- metrik_typ -->
<g id="node5" class="node">
<title>metrik_typ</title>
<text text-anchor="start" x="206" y="-295.4" font-family="IBM Plex Mono" font-weight="bold" font-size="7.00" fill="#03253e">metrik_typ</text>
<polygon fill="none" stroke="#1f4a6b" points="170.5,-288 170.5,-290 284.5,-290 284.5,-288 170.5,-288"/>
<text text-anchor="start" x="172.5" y="-280.4" font-family="IBM Plex Mono" font-size="7.00" fill="#33454f">&#45; metrik_typ_id(PK) : INTEGER</text>
<text text-anchor="start" x="172.5" y="-268.4" font-family="IBM Plex Mono" font-size="7.00" fill="#33454f">&#45; schluessel : VARCHAR(60)</text>
<text text-anchor="start" x="172.5" y="-256.4" font-family="IBM Plex Mono" font-size="7.00" fill="#33454f">&#45; bezeichnung : VARCHAR(120)</text>
<text text-anchor="start" x="172.5" y="-244.4" font-family="IBM Plex Mono" font-size="7.00" fill="#33454f">&#45; einheit : VARCHAR(40)</text>
<text text-anchor="start" x="172.5" y="-232.4" font-family="IBM Plex Mono" font-size="7.00" fill="#33454f">&#45; feature_id : VARCHAR(10)</text>
<text text-anchor="start" x="172.5" y="-220.4" font-family="IBM Plex Mono" font-size="7.00" fill="#33454f">&#45; aktiv : BOOLEAN</text>
<polygon fill="none" stroke="#1f4a6b" points="169.5,-215 169.5,-303 285.5,-303 285.5,-215 169.5,-215"/>
</g>
<!-- session -->
<g id="node6" class="node">
<title>session</title>
<text text-anchor="start" x="435.5" y="-313.4" font-family="IBM Plex Mono" font-weight="bold" font-size="7.00" fill="#03253e">session</text>
<polygon fill="none" stroke="#1f4a6b" points="389.5,-306 389.5,-308 512.5,-308 512.5,-306 389.5,-306"/>
<text text-anchor="start" x="391.5" y="-298.4" font-family="IBM Plex Mono" font-size="7.00" fill="#33454f">&#45; session_id(PK) : INTEGER</text>
<text text-anchor="start" x="391.5" y="-286.4" font-family="IBM Plex Mono" font-size="7.00" fill="#33454f">&#45; oeffentliche_id : CHAR(32)</text>
<text text-anchor="start" x="391.5" y="-274.4" font-family="IBM Plex Mono" font-size="7.00" fill="#33454f">&#45; subject_id : VARCHAR(64)</text>
<text text-anchor="start" x="391.5" y="-262.4" font-family="IBM Plex Mono" font-size="7.00" fill="#33454f">&#45; persona_id(FK) : INTEGER</text>
<text text-anchor="start" x="391.5" y="-250.4" font-family="IBM Plex Mono" font-size="7.00" fill="#33454f">&#45; szenario_id(FK) : INTEGER</text>
<text text-anchor="start" x="391.5" y="-238.4" font-family="IBM Plex Mono" font-size="7.00" fill="#33454f">&#45; sprache_code(FK) : VARCHAR(8)</text>
<text text-anchor="start" x="391.5" y="-226.4" font-family="IBM Plex Mono" font-size="7.00" fill="#33454f">&#45; status : VARCHAR(20)</text>
<text text-anchor="start" x="391.5" y="-214.4" font-family="IBM Plex Mono" font-size="7.00" fill="#33454f">&#45; gestartet_am : DATETIME</text>
<text text-anchor="start" x="391.5" y="-202.4" font-family="IBM Plex Mono" font-size="7.00" fill="#33454f">&#45; beendet_am : DATETIME</text>
<polygon fill="none" stroke="#1f4a6b" points="388,-197 388,-321 513,-321 513,-197 388,-197"/>
</g>
<!-- session&#45;&gt;persona -->
<g id="edge4" class="edge">
<title>session&#45;&gt;persona</title>
<path fill="none" stroke="#325f7f" d="M369.81,-202C369.81,-202 188,-202 188,-202 188,-202 188,-140.01 188,-140.01"/>
<polygon fill="#325f7f" stroke="#325f7f" points="369.81,-202 379.81,-206.5 374.81,-202 379.81,-202 379.81,-202 379.81,-202 374.81,-202 379.81,-197.5 369.81,-202 369.81,-202"/>
<ellipse fill="none" stroke="#325f7f" cx="188" cy="-136.01" rx="4" ry="4"/>
</g>
<!-- session&#45;&gt;szenario -->
<g id="edge3" class="edge">
<title>session&#45;&gt;szenario</title>
<path fill="none" stroke="#325f7f" d="M510,-182.85C510,-182.85 510,-116.18 510,-116.18"/>
<polygon fill="#325f7f" stroke="#325f7f" points="510,-118.18 514.5,-108.18 510,-113.18 510,-108.18 510,-108.18 510,-108.18 510,-113.18 505.5,-108.18 510,-118.18 510,-118.18"/>
<ellipse fill="none" stroke="#325f7f" cx="510" cy="-188.85" rx="4" ry="4"/>
</g>
<!-- session&#45;&gt;sprache -->
<g id="edge2" class="edge">
<title>session&#45;&gt;sprache</title>
<path fill="none" stroke="#325f7f" d="M419.25,-182.85C419.25,-182.85 419.25,-98.45 419.25,-98.45"/>
<polygon fill="#325f7f" stroke="#325f7f" points="419.25,-100.45 423.75,-90.45 419.25,-95.45 419.25,-90.45 419.25,-90.45 419.25,-90.45 419.25,-95.45 414.75,-90.45 419.25,-100.45 419.25,-100.45"/>
<ellipse fill="none" stroke="#325f7f" cx="419.25" cy="-188.85" rx="4" ry="4"/>
</g>
<!-- turn -->
<g id="node7" class="node">
<title>turn</title>
<text text-anchor="start" x="660.5" y="-482.4" font-family="IBM Plex Mono" font-weight="bold" font-size="7.00" fill="#03253e">turn</text>
<polygon fill="none" stroke="#1f4a6b" points="618.5,-475 618.5,-477 720.5,-477 720.5,-475 618.5,-475"/>
<text text-anchor="start" x="620.5" y="-467.4" font-family="IBM Plex Mono" font-size="7.00" fill="#33454f">&#45; turn_id(PK) : INTEGER</text>
<text text-anchor="start" x="620.5" y="-455.4" font-family="IBM Plex Mono" font-size="7.00" fill="#33454f">&#45; session_id(FK) : INTEGER</text>
<text text-anchor="start" x="620.5" y="-443.4" font-family="IBM Plex Mono" font-size="7.00" fill="#33454f">&#45; sprecher : VARCHAR(10)</text>
<text text-anchor="start" x="620.5" y="-431.4" font-family="IBM Plex Mono" font-size="7.00" fill="#33454f">&#45; seq_index : INTEGER</text>
<text text-anchor="start" x="620.5" y="-419.4" font-family="IBM Plex Mono" font-size="7.00" fill="#33454f">&#45; start_offset_ms : INTEGER</text>
<text text-anchor="start" x="620.5" y="-407.4" font-family="IBM Plex Mono" font-size="7.00" fill="#33454f">&#45; dauer_ms : INTEGER</text>
<text text-anchor="start" x="620.5" y="-395.4" font-family="IBM Plex Mono" font-size="7.00" fill="#33454f">&#45; transkript : TEXT</text>
<polygon fill="none" stroke="#1f4a6b" points="617.5,-390 617.5,-490 721.5,-490 721.5,-390 617.5,-390"/>
</g>
<!-- turn&#45;&gt;session -->
<g id="edge5" class="edge">
<title>turn&#45;&gt;session</title>
<path fill="none" stroke="#325f7f" d="M614.75,-375.73C614.75,-375.73 614.75,-281 614.75,-281 614.75,-281 529.11,-281 529.11,-281"/>
<polygon fill="#325f7f" stroke="#325f7f" points="614.75,-375.73 610.25,-385.73 614.75,-380.73 614.75,-385.73 614.75,-385.73 614.75,-385.73 614.75,-380.73 619.25,-385.73 614.75,-375.73 614.75,-375.73"/>
<ellipse fill="none" stroke="#325f7f" cx="525.11" cy="-281" rx="4" ry="4"/>
</g>
<!-- messung -->
<g id="node8" class="node">
<title>messung</title>
<text text-anchor="start" x="321" y="-470.4" font-family="IBM Plex Mono" font-weight="bold" font-size="7.00" fill="#03253e">messung</text>
<polygon fill="none" stroke="#1f4a6b" points="284.5,-463 284.5,-465 394.5,-465 394.5,-463 284.5,-463"/>
<text text-anchor="start" x="286.5" y="-455.4" font-family="IBM Plex Mono" font-size="7.00" fill="#33454f">&#45; messung_id(PK) : INTEGER</text>
<text text-anchor="start" x="286.5" y="-443.4" font-family="IBM Plex Mono" font-size="7.00" fill="#33454f">&#45; session_id(FK) : INTEGER</text>
<text text-anchor="start" x="286.5" y="-431.4" font-family="IBM Plex Mono" font-size="7.00" fill="#33454f">&#45; metrik_typ_id(FK) : INTEGER</text>
<text text-anchor="start" x="286.5" y="-419.4" font-family="IBM Plex Mono" font-size="7.00" fill="#33454f">&#45; wert : NUMERIC(10, 4)</text>
<text text-anchor="start" x="286.5" y="-407.4" font-family="IBM Plex Mono" font-size="7.00" fill="#33454f">&#45; detail_json : JSONB</text>
<polygon fill="none" stroke="#1f4a6b" points="283.5,-402 283.5,-478 395.5,-478 395.5,-402 283.5,-402"/>
</g>
<!-- messung&#45;&gt;metrik_typ -->
<g id="edge7" class="edge">
<title>messung&#45;&gt;metrik_typ</title>
<path fill="none" stroke="#325f7f" d="M284.5,-387.56C284.5,-387.56 284.5,-315.24 284.5,-315.24"/>
<polygon fill="#325f7f" stroke="#325f7f" points="284.5,-317.24 289,-307.24 284.5,-312.24 284.5,-307.24 284.5,-307.24 284.5,-307.24 284.5,-312.24 280,-307.24 284.5,-317.24 284.5,-317.24"/>
<ellipse fill="none" stroke="#325f7f" cx="284.5" cy="-393.56" rx="4" ry="4"/>
</g>
<!-- messung&#45;&gt;session -->
<g id="edge6" class="edge">
<title>messung&#45;&gt;session</title>
<path fill="none" stroke="#325f7f" d="M391.75,-387.56C391.75,-387.56 391.75,-333.26 391.75,-333.26"/>
<polygon fill="#325f7f" stroke="#325f7f" points="391.75,-335.26 396.25,-325.26 391.75,-330.26 391.75,-325.26 391.75,-325.26 391.75,-325.26 391.75,-330.26 387.25,-325.26 391.75,-335.26 391.75,-335.26"/>
<ellipse fill="none" stroke="#325f7f" cx="391.75" cy="-393.56" rx="4" ry="4"/>
</g>
<!-- befund -->
<g id="node9" class="node">
<title>befund</title>
<text text-anchor="start" x="157" y="-476.4" font-family="IBM Plex Mono" font-weight="bold" font-size="7.00" fill="#03253e">befund</text>
<polygon fill="none" stroke="#1f4a6b" points="116.5,-469 116.5,-471 226.5,-471 226.5,-469 116.5,-469"/>
<text text-anchor="start" x="118.5" y="-461.4" font-family="IBM Plex Mono" font-size="7.00" fill="#33454f">&#45; befund_id(PK) : INTEGER</text>
<text text-anchor="start" x="118.5" y="-449.4" font-family="IBM Plex Mono" font-size="7.00" fill="#33454f">&#45; session_id(FK) : INTEGER</text>
<text text-anchor="start" x="118.5" y="-437.4" font-family="IBM Plex Mono" font-size="7.00" fill="#33454f">&#45; metrik_typ_id(FK) : INTEGER</text>
<text text-anchor="start" x="118.5" y="-425.4" font-family="IBM Plex Mono" font-size="7.00" fill="#33454f">&#45; kategorie : VARCHAR(60)</text>
<text text-anchor="start" x="118.5" y="-413.4" font-family="IBM Plex Mono" font-size="7.00" fill="#33454f">&#45; offset_ms : INTEGER</text>
<text text-anchor="start" x="118.5" y="-401.4" font-family="IBM Plex Mono" font-size="7.00" fill="#33454f">&#45; beschreibung : TEXT</text>
<polygon fill="none" stroke="#1f4a6b" points="115.5,-396 115.5,-484 227.5,-484 227.5,-396 115.5,-396"/>
</g>
<!-- befund&#45;&gt;metrik_typ -->
<g id="edge8" class="edge">
<title>befund&#45;&gt;metrik_typ</title>
<path fill="none" stroke="#325f7f" d="M186.17,-381.97C186.17,-381.97 186.17,-315.25 186.17,-315.25"/>
<polygon fill="#325f7f" stroke="#325f7f" points="186.17,-317.25 190.67,-307.25 186.17,-312.25 186.17,-307.25 186.17,-307.25 186.17,-307.25 186.17,-312.25 181.67,-307.25 186.17,-317.25 186.17,-317.25"/>
<ellipse fill="none" stroke="#325f7f" cx="186.17" cy="-387.97" rx="4" ry="4"/>
</g>
<!-- befund&#45;&gt;session -->
<g id="edge9" class="edge">
<title>befund&#45;&gt;session</title>
<path fill="none" stroke="#325f7f" d="M210.83,-381.7C210.83,-381.7 210.83,-316 210.83,-316 210.83,-316 371.89,-316 371.89,-316"/>
<polygon fill="#325f7f" stroke="#325f7f" points="210.83,-381.7 206.33,-391.7 210.83,-386.7 210.83,-391.7 210.83,-391.7 210.83,-391.7 210.83,-386.7 215.33,-391.7 210.83,-381.7 210.83,-381.7"/>
<ellipse fill="none" stroke="#325f7f" cx="375.89" cy="-316" rx="4" ry="4"/>
</g>
<!-- feedback -->
<g id="node10" class="node">
<title>feedback</title>
<text text-anchor="start" x="812" y="-470.4" font-family="IBM Plex Mono" font-weight="bold" font-size="7.00" fill="#03253e">feedback</text>
<polygon fill="none" stroke="#1f4a6b" points="778.5,-463 778.5,-465 882.5,-465 882.5,-463 778.5,-463"/>
<text text-anchor="start" x="780.5" y="-455.4" font-family="IBM Plex Mono" font-size="7.00" fill="#33454f">&#45; feedback_id(PK) : INTEGER</text>
<text text-anchor="start" x="780.5" y="-443.4" font-family="IBM Plex Mono" font-size="7.00" fill="#33454f">&#45; session_id(FK) : INTEGER</text>
<text text-anchor="start" x="780.5" y="-431.4" font-family="IBM Plex Mono" font-size="7.00" fill="#33454f">&#45; zusammenfassung : TEXT</text>
<text text-anchor="start" x="780.5" y="-419.4" font-family="IBM Plex Mono" font-size="7.00" fill="#33454f">&#45; score : INTEGER</text>
<text text-anchor="start" x="780.5" y="-407.4" font-family="IBM Plex Mono" font-size="7.00" fill="#33454f">&#45; erstellt_am : DATETIME</text>
<polygon fill="none" stroke="#1f4a6b" points="777.5,-402 777.5,-478 883.5,-478 883.5,-402 777.5,-402"/>
</g>
<!-- feedback&#45;&gt;session -->
<g id="edge10" class="edge">
<title>feedback&#45;&gt;session</title>
<path fill="none" stroke="#325f7f" d="M830.5,-387.94C830.5,-387.94 830.5,-237 830.5,-237 830.5,-237 529.08,-237 529.08,-237"/>
<polygon fill="none" stroke="#325f7f" points="827,-387.94 830.5,-397.94 834,-387.94 827,-387.94"/>
<ellipse fill="none" stroke="#325f7f" cx="525.08" cy="-237" rx="4" ry="4"/>
</g>
<!-- feedbackpunkt -->
<g id="node11" class="node">
<title>feedbackpunkt</title>
<text text-anchor="start" x="391" y="-663.4" font-family="IBM Plex Mono" font-weight="bold" font-size="7.00" fill="#03253e">feedbackpunkt</text>
<polygon fill="none" stroke="#1f4a6b" points="358.5,-656 358.5,-658 483.5,-658 483.5,-656 358.5,-656"/>
<text text-anchor="start" x="360.5" y="-648.4" font-family="IBM Plex Mono" font-size="7.00" fill="#33454f">&#45; feedbackpunkt_id(PK) : INTEGER</text>
<text text-anchor="start" x="360.5" y="-636.4" font-family="IBM Plex Mono" font-size="7.00" fill="#33454f">&#45; feedback_id(FK) : INTEGER</text>
<text text-anchor="start" x="360.5" y="-624.4" font-family="IBM Plex Mono" font-size="7.00" fill="#33454f">&#45; turn_id(FK) : INTEGER</text>
<text text-anchor="start" x="360.5" y="-612.4" font-family="IBM Plex Mono" font-size="7.00" fill="#33454f">&#45; befund_id(FK) : INTEGER</text>
<text text-anchor="start" x="360.5" y="-600.4" font-family="IBM Plex Mono" font-size="7.00" fill="#33454f">&#45; metrik_typ_id(FK) : INTEGER</text>
<text text-anchor="start" x="360.5" y="-588.4" font-family="IBM Plex Mono" font-size="7.00" fill="#33454f">&#45; art : VARCHAR(20)</text>
<text text-anchor="start" x="360.5" y="-576.4" font-family="IBM Plex Mono" font-size="7.00" fill="#33454f">&#45; reihenfolge : INTEGER</text>
<text text-anchor="start" x="360.5" y="-564.4" font-family="IBM Plex Mono" font-size="7.00" fill="#33454f">&#45; text : TEXT</text>
<polygon fill="none" stroke="#1f4a6b" points="357,-559 357,-671 484,-671 484,-559 357,-559"/>
</g>
<!-- feedbackpunkt&#45;&gt;metrik_typ -->
<g id="edge11" class="edge">
<title>feedbackpunkt&#45;&gt;metrik_typ</title>
<path fill="none" stroke="#325f7f" d="M338.61,-595C338.61,-595 255.5,-595 255.5,-595 255.5,-595 255.5,-315.14 255.5,-315.14"/>
<polygon fill="#325f7f" stroke="#325f7f" points="338.61,-595 348.61,-599.5 343.61,-595 348.61,-595 348.61,-595 348.61,-595 343.61,-595 348.61,-590.5 338.61,-595 338.61,-595"/>
<ellipse fill="none" stroke="#325f7f" cx="255.5" cy="-311.14" rx="4" ry="4"/>
</g>
<!-- feedbackpunkt&#45;&gt;turn -->
<g id="edge13" class="edge">
<title>feedbackpunkt&#45;&gt;turn</title>
<path fill="none" stroke="#325f7f" d="M502.19,-595C502.19,-595 669.5,-595 669.5,-595 669.5,-595 669.5,-502.21 669.5,-502.21"/>
<polygon fill="#325f7f" stroke="#325f7f" points="502.19,-595 492.19,-590.5 497.19,-595 492.19,-595 492.19,-595 492.19,-595 497.19,-595 492.19,-599.5 502.19,-595 502.19,-595"/>
<ellipse fill="none" stroke="#325f7f" cx="669.5" cy="-498.21" rx="4" ry="4"/>
</g>
<!-- feedbackpunkt&#45;&gt;befund -->
<g id="edge14" class="edge">
<title>feedbackpunkt&#45;&gt;befund</title>
<path fill="none" stroke="#325f7f" d="M338.81,-635C338.81,-635 171.5,-635 171.5,-635 171.5,-635 171.5,-496.2 171.5,-496.2"/>
<polygon fill="#325f7f" stroke="#325f7f" points="338.81,-635 348.81,-639.5 343.81,-635 348.81,-635 348.81,-635 348.81,-635 343.81,-635 348.81,-630.5 338.81,-635 338.81,-635"/>
<ellipse fill="none" stroke="#325f7f" cx="171.5" cy="-492.2" rx="4" ry="4"/>
</g>
<!-- feedbackpunkt&#45;&gt;feedback -->
<g id="edge12" class="edge">
<title>feedbackpunkt&#45;&gt;feedback</title>
<path fill="none" stroke="#325f7f" d="M502.39,-635C502.39,-635 830.5,-635 830.5,-635 830.5,-635 830.5,-490.31 830.5,-490.31"/>
<polygon fill="#325f7f" stroke="#325f7f" points="502.39,-635 492.39,-630.5 497.39,-635 492.39,-635 492.39,-635 492.39,-635 497.39,-635 492.39,-639.5 502.39,-635 502.39,-635"/>
<ellipse fill="none" stroke="#325f7f" cx="830.5" cy="-486.31" rx="4" ry="4"/>
</g>
<!-- analysis_job -->
<g id="node12" class="node">
<title>analysis_job</title>
<text text-anchor="start" x="482" y="-482.4" font-family="IBM Plex Mono" font-weight="bold" font-size="7.00" fill="#03253e">analysis_job</text>
<polygon fill="none" stroke="#1f4a6b" points="452.5,-475 452.5,-477 560.5,-477 560.5,-475 452.5,-475"/>
<text text-anchor="start" x="454.5" y="-467.4" font-family="IBM Plex Mono" font-size="7.00" fill="#33454f">&#45; job_id(PK) : INTEGER</text>
<text text-anchor="start" x="454.5" y="-455.4" font-family="IBM Plex Mono" font-size="7.00" fill="#33454f">&#45; session_id(FK) : INTEGER</text>
<text text-anchor="start" x="454.5" y="-443.4" font-family="IBM Plex Mono" font-size="7.00" fill="#33454f">&#45; art : VARCHAR(20)</text>
<text text-anchor="start" x="454.5" y="-431.4" font-family="IBM Plex Mono" font-size="7.00" fill="#33454f">&#45; status : VARCHAR(20)</text>
<text text-anchor="start" x="454.5" y="-419.4" font-family="IBM Plex Mono" font-size="7.00" fill="#33454f">&#45; versuche : INTEGER</text>
<text text-anchor="start" x="454.5" y="-407.4" font-family="IBM Plex Mono" font-size="7.00" fill="#33454f">&#45; fehlertext : TEXT</text>
<text text-anchor="start" x="454.5" y="-395.4" font-family="IBM Plex Mono" font-size="7.00" fill="#33454f">&#45; aktualisiert_am : DATETIME</text>
<polygon fill="none" stroke="#1f4a6b" points="451.5,-390 451.5,-490 561.5,-490 561.5,-390 451.5,-390"/>
</g>
<!-- analysis_job&#45;&gt;session -->
<g id="edge15" class="edge">
<title>analysis_job&#45;&gt;session</title>
<path fill="none" stroke="#325f7f" d="M482.25,-375.69C482.25,-375.69 482.25,-333.1 482.25,-333.1"/>
<polygon fill="#325f7f" stroke="#325f7f" points="482.25,-335.1 486.75,-325.1 482.25,-330.1 482.25,-325.1 482.25,-325.1 482.25,-325.1 482.25,-330.1 477.75,-325.1 482.25,-335.1 482.25,-335.1"/>
<ellipse fill="none" stroke="#325f7f" cx="482.25" cy="-381.69" rx="4" ry="4"/>
</g>
</g>
</svg>
