<?xml version="1.0" encoding="UTF-8" standalone="no"?>
<!DOCTYPE svg PUBLIC "-//W3C//DTD SVG 1.1//EN"
 "http://www.w3.org/Graphics/SVG/1.1/DTD/svg11.dtd">
<!-- Generated by graphviz version 15.1.1 (20260805.0921)
 -->
<!-- Title: G Pages: 1 -->
<svg width="703pt" height="1010pt"
 viewBox="0.00 0.00 703.00 1010.00" xmlns="http://www.w3.org/2000/svg" xmlns:xlink="http://www.w3.org/1999/xlink">
<g id="graph0" class="graph" transform="scale(1 1) rotate(0) translate(28.8 981.55)">
<title>G</title>
<polygon fill="#f5f8fb" stroke="none" points="-28.8,28.8 -28.8,-981.55 674.55,-981.55 674.55,28.8 -28.8,28.8"/>
<!-- persona -->
<g id="node1" class="node">
<title>persona</title>
<polygon fill="none" stroke="#1f4a6b" points="39.12,-113.75 39.12,-277 160.62,-277 160.62,-113.75 39.12,-113.75"/>
<text xml:space="preserve" text-anchor="start" x="86" y="-268.35" font-family="IBM Plex Mono" font-weight="bold" font-size="7.00" fill="#03253e">persona</text>
<polygon fill="none" stroke="#1f4a6b" points="40.12,-261.75 40.12,-263.75 159.62,-263.75 159.62,-261.75 40.12,-261.75"/>
<text xml:space="preserve" text-anchor="start" x="42.12" y="-253.75" font-family="IBM Plex Mono" font-size="7.00" fill="#33454f">&#45; persona_id(PK) : INTEGER</text>
<text xml:space="preserve" text-anchor="start" x="42.12" y="-241.5" font-family="IBM Plex Mono" font-size="7.00" fill="#33454f">&#45; schluessel : VARCHAR(60)</text>
<text xml:space="preserve" text-anchor="start" x="42.12" y="-229.25" font-family="IBM Plex Mono" font-size="7.00" fill="#33454f">&#45; name : VARCHAR(120)</text>
<text xml:space="preserve" text-anchor="start" x="42.12" y="-217" font-family="IBM Plex Mono" font-size="7.00" fill="#33454f">&#45; rolle : VARCHAR(120)</text>
<text xml:space="preserve" text-anchor="start" x="42.12" y="-204.75" font-family="IBM Plex Mono" font-size="7.00" fill="#33454f">&#45; haltung : VARCHAR(120)</text>
<text xml:space="preserve" text-anchor="start" x="42.12" y="-192.5" font-family="IBM Plex Mono" font-size="7.00" fill="#33454f">&#45; verhalten : TEXT</text>
<text xml:space="preserve" text-anchor="start" x="42.12" y="-180.25" font-family="IBM Plex Mono" font-size="7.00" fill="#33454f">&#45; trainingsziel : TEXT</text>
<text xml:space="preserve" text-anchor="start" x="42.12" y="-168" font-family="IBM Plex Mono" font-size="7.00" fill="#33454f">&#45; schwierigkeitsgrad : VARCHAR(40)</text>
<text xml:space="preserve" text-anchor="start" x="42.12" y="-155.75" font-family="IBM Plex Mono" font-size="7.00" fill="#33454f">&#45; sprache_code(FK) : VARCHAR(8)</text>
<text xml:space="preserve" text-anchor="start" x="42.12" y="-143.5" font-family="IBM Plex Mono" font-size="7.00" fill="#33454f">&#45; tts_voice : VARCHAR(60)</text>
<text xml:space="preserve" text-anchor="start" x="42.12" y="-131.25" font-family="IBM Plex Mono" font-size="7.00" fill="#33454f">&#45; kugelaudio_voice_id : INTEGER</text>
<text xml:space="preserve" text-anchor="start" x="42.12" y="-119" font-family="IBM Plex Mono" font-size="7.00" fill="#33454f">&#45; aktiv : BOOLEAN</text>
</g>
<!-- sprache -->
<g id="node4" class="node">
<title>sprache</title>
<polygon fill="none" stroke="#1f4a6b" points="183.38,-4 183.38,-44.75 300.38,-44.75 300.38,-4 183.38,-4"/>
<text xml:space="preserve" text-anchor="start" x="228.38" y="-36.1" font-family="IBM Plex Mono" font-weight="bold" font-size="7.00" fill="#03253e">sprache</text>
<polygon fill="none" stroke="#1f4a6b" points="184.38,-29.5 184.38,-31.5 299.38,-31.5 299.38,-29.5 184.38,-29.5"/>
<text xml:space="preserve" text-anchor="start" x="186.38" y="-21.5" font-family="IBM Plex Mono" font-size="7.00" fill="#33454f">&#45; sprache_code(PK) : VARCHAR(8)</text>
<text xml:space="preserve" text-anchor="start" x="186.38" y="-9.25" font-family="IBM Plex Mono" font-size="7.00" fill="#33454f">&#45; bezeichnung : VARCHAR(60)</text>
</g>
<!-- persona&#45;&gt;sprache -->
<g id="edge1" class="edge">
<title>persona&#45;&gt;sprache</title>
<path fill="none" stroke="#325f7f" d="M178.83,-128C178.83,-128 187.38,-128 187.38,-128 187.38,-128 187.38,-57.67 187.38,-57.67"/>
<polygon fill="#325f7f" stroke="#325f7f" points="178.72,-128 168.72,-123.5 173.39,-128 169.06,-128 169.06,-128 169.06,-128 173.39,-128 168.72,-132.5 178.72,-128"/>
<ellipse fill="none" stroke="#325f7f" cx="187.38" cy="-53.17" rx="4" ry="4"/>
</g>
<!-- persona_einwand -->
<g id="node2" class="node">
<title>persona_einwand</title>
<polygon fill="none" stroke="#1f4a6b" points="51.5,-376.62 51.5,-441.88 148.25,-441.88 148.25,-376.62 51.5,-376.62"/>
<text xml:space="preserve" text-anchor="start" x="69.88" y="-433.23" font-family="IBM Plex Mono" font-weight="bold" font-size="7.00" fill="#03253e">persona_einwand</text>
<polygon fill="none" stroke="#1f4a6b" points="52.5,-426.62 52.5,-428.62 147.25,-428.62 147.25,-426.62 52.5,-426.62"/>
<text xml:space="preserve" text-anchor="start" x="54.5" y="-418.62" font-family="IBM Plex Mono" font-size="7.00" fill="#33454f">&#45; einwand_id(PK) : INTEGER</text>
<text xml:space="preserve" text-anchor="start" x="54.5" y="-406.38" font-family="IBM Plex Mono" font-size="7.00" fill="#33454f">&#45; persona_id(FK) : INTEGER</text>
<text xml:space="preserve" text-anchor="start" x="54.5" y="-394.12" font-family="IBM Plex Mono" font-size="7.00" fill="#33454f">&#45; reihenfolge : INTEGER</text>
<text xml:space="preserve" text-anchor="start" x="54.5" y="-381.88" font-family="IBM Plex Mono" font-size="7.00" fill="#33454f">&#45; text : TEXT</text>
</g>
<!-- persona_einwand&#45;&gt;persona -->
<g id="edge2" class="edge">
<title>persona_einwand&#45;&gt;persona</title>
<path fill="none" stroke="#325f7f" d="M99.88,-362.53C99.88,-362.53 99.88,-289.82 99.88,-289.82"/>
<polygon fill="#325f7f" stroke="#325f7f" points="99.88,-362.63 95.38,-372.63 99.88,-367.97 99.88,-372.3 99.88,-372.3 99.88,-372.3 99.88,-367.97 104.38,-372.63 99.88,-362.63"/>
<ellipse fill="none" stroke="#325f7f" cx="99.88" cy="-285.32" rx="4" ry="4"/>
</g>
<!-- szenario -->
<g id="node3" class="node">
<title>szenario</title>
<polygon fill="none" stroke="#1f4a6b" points="217.12,-150.5 217.12,-240.25 314.62,-240.25 314.62,-150.5 217.12,-150.5"/>
<text xml:space="preserve" text-anchor="start" x="251.25" y="-231.6" font-family="IBM Plex Mono" font-weight="bold" font-size="7.00" fill="#03253e">szenario</text>
<polygon fill="none" stroke="#1f4a6b" points="218.12,-225 218.12,-227 313.62,-227 313.62,-225 218.12,-225"/>
<text xml:space="preserve" text-anchor="start" x="220.12" y="-217" font-family="IBM Plex Mono" font-size="7.00" fill="#33454f">&#45; szenario_id(PK) : INTEGER</text>
<text xml:space="preserve" text-anchor="start" x="220.12" y="-204.75" font-family="IBM Plex Mono" font-size="7.00" fill="#33454f">&#45; schluessel : VARCHAR(60)</text>
<text xml:space="preserve" text-anchor="start" x="220.12" y="-192.5" font-family="IBM Plex Mono" font-size="7.00" fill="#33454f">&#45; typ : VARCHAR(60)</text>
<text xml:space="preserve" text-anchor="start" x="220.12" y="-180.25" font-family="IBM Plex Mono" font-size="7.00" fill="#33454f">&#45; titel : VARCHAR(160)</text>
<text xml:space="preserve" text-anchor="start" x="220.12" y="-168" font-family="IBM Plex Mono" font-size="7.00" fill="#33454f">&#45; beschreibung : TEXT</text>
<text xml:space="preserve" text-anchor="start" x="220.12" y="-155.75" font-family="IBM Plex Mono" font-size="7.00" fill="#33454f">&#45; aktiv : BOOLEAN</text>
</g>
<!-- metrik_typ -->
<g id="node5" class="node">
<title>metrik_typ</title>
<polygon fill="none" stroke="#1f4a6b" points="375.62,-547.62 375.62,-637.38 482.12,-637.38 482.12,-547.62 375.62,-547.62"/>
<text xml:space="preserve" text-anchor="start" x="411.25" y="-628.73" font-family="IBM Plex Mono" font-weight="bold" font-size="7.00" fill="#03253e">metrik_typ</text>
<polygon fill="none" stroke="#1f4a6b" points="376.62,-622.12 376.62,-624.12 481.12,-624.12 481.12,-622.12 376.62,-622.12"/>
<text xml:space="preserve" text-anchor="start" x="378.62" y="-614.12" font-family="IBM Plex Mono" font-size="7.00" fill="#33454f">&#45; metrik_typ_id(PK) : INTEGER</text>
<text xml:space="preserve" text-anchor="start" x="378.62" y="-601.88" font-family="IBM Plex Mono" font-size="7.00" fill="#33454f">&#45; schluessel : VARCHAR(60)</text>
<text xml:space="preserve" text-anchor="start" x="378.62" y="-589.62" font-family="IBM Plex Mono" font-size="7.00" fill="#33454f">&#45; bezeichnung : VARCHAR(120)</text>
<text xml:space="preserve" text-anchor="start" x="378.62" y="-577.38" font-family="IBM Plex Mono" font-size="7.00" fill="#33454f">&#45; einheit : VARCHAR(40)</text>
<text xml:space="preserve" text-anchor="start" x="378.62" y="-565.12" font-family="IBM Plex Mono" font-size="7.00" fill="#33454f">&#45; feature_id : VARCHAR(10)</text>
<text xml:space="preserve" text-anchor="start" x="378.62" y="-552.88" font-family="IBM Plex Mono" font-size="7.00" fill="#33454f">&#45; aktiv : BOOLEAN</text>
</g>
<!-- session -->
<g id="node6" class="node">
<title>session</title>
<polygon fill="none" stroke="#1f4a6b" points="207.38,-346 207.38,-472.5 324.38,-472.5 324.38,-346 207.38,-346"/>
<text xml:space="preserve" text-anchor="start" x="252.75" y="-463.85" font-family="IBM Plex Mono" font-weight="bold" font-size="7.00" fill="#03253e">session</text>
<polygon fill="none" stroke="#1f4a6b" points="208.38,-457.25 208.38,-459.25 323.38,-459.25 323.38,-457.25 208.38,-457.25"/>
<text xml:space="preserve" text-anchor="start" x="210.38" y="-449.25" font-family="IBM Plex Mono" font-size="7.00" fill="#33454f">&#45; session_id(PK) : INTEGER</text>
<text xml:space="preserve" text-anchor="start" x="210.38" y="-437" font-family="IBM Plex Mono" font-size="7.00" fill="#33454f">&#45; extern_id : CHAR(32)</text>
<text xml:space="preserve" text-anchor="start" x="210.38" y="-424.75" font-family="IBM Plex Mono" font-size="7.00" fill="#33454f">&#45; subject_id : VARCHAR(64)</text>
<text xml:space="preserve" text-anchor="start" x="210.38" y="-412.5" font-family="IBM Plex Mono" font-size="7.00" fill="#33454f">&#45; persona_id(FK) : INTEGER</text>
<text xml:space="preserve" text-anchor="start" x="210.38" y="-400.25" font-family="IBM Plex Mono" font-size="7.00" fill="#33454f">&#45; szenario_id(FK) : INTEGER</text>
<text xml:space="preserve" text-anchor="start" x="210.38" y="-388" font-family="IBM Plex Mono" font-size="7.00" fill="#33454f">&#45; sprache_code(FK) : VARCHAR(8)</text>
<text xml:space="preserve" text-anchor="start" x="210.38" y="-375.75" font-family="IBM Plex Mono" font-size="7.00" fill="#33454f">&#45; status : VARCHAR(20)</text>
<text xml:space="preserve" text-anchor="start" x="210.38" y="-363.5" font-family="IBM Plex Mono" font-size="7.00" fill="#33454f">&#45; gestartet_am : DATETIME</text>
<text xml:space="preserve" text-anchor="start" x="210.38" y="-351.25" font-family="IBM Plex Mono" font-size="7.00" fill="#33454f">&#45; beendet_am : DATETIME</text>
</g>
<!-- session&#45;&gt;persona -->
<g id="edge4" class="edge">
<title>session&#45;&gt;persona</title>
<path fill="none" stroke="#325f7f" d="M189.05,-357C189.05,-357 162.44,-357 162.44,-357 162.44,-357 162.44,-289.92 162.44,-289.92"/>
<polygon fill="#325f7f" stroke="#325f7f" points="189.15,-357 199.15,-361.5 194.49,-357 198.82,-357 198.82,-357 198.82,-357 194.49,-357 199.15,-352.5 189.15,-357"/>
<ellipse fill="none" stroke="#325f7f" cx="162.44" cy="-285.42" rx="4" ry="4"/>
</g>
<!-- session&#45;&gt;szenario -->
<g id="edge3" class="edge">
<title>session&#45;&gt;szenario</title>
<path fill="none" stroke="#325f7f" d="M265.88,-331.72C265.88,-331.72 265.88,-253.24 265.88,-253.24"/>
<polygon fill="#325f7f" stroke="#325f7f" points="265.88,-331.83 261.38,-341.83 265.88,-337.17 265.88,-341.5 265.88,-341.5 265.88,-341.5 265.88,-337.17 270.38,-341.83 265.88,-331.83"/>
<ellipse fill="none" stroke="#325f7f" cx="265.88" cy="-248.74" rx="4" ry="4"/>
</g>
<!-- session&#45;&gt;sprache -->
<g id="edge5" class="edge">
<title>session&#45;&gt;sprache</title>
<path fill="none" stroke="#325f7f" d="M204.25,-331.77C204.25,-331.77 204.25,-57.36 204.25,-57.36"/>
<polygon fill="#325f7f" stroke="#325f7f" points="204.25,-331.88 199.75,-341.88 204.25,-337.21 204.25,-341.54 204.25,-341.54 204.25,-341.54 204.25,-337.21 208.75,-341.88 204.25,-331.88"/>
<ellipse fill="none" stroke="#325f7f" cx="204.25" cy="-52.86" rx="4" ry="4"/>
</g>
<!-- turn -->
<g id="node7" class="node">
<title>turn</title>
<polygon fill="none" stroke="#1f4a6b" points="211.88,-541.5 211.88,-643.5 319.88,-643.5 319.88,-541.5 211.88,-541.5"/>
<text xml:space="preserve" text-anchor="start" x="258.75" y="-634.85" font-family="IBM Plex Mono" font-weight="bold" font-size="7.00" fill="#03253e">turn</text>
<polygon fill="none" stroke="#1f4a6b" points="212.88,-628.25 212.88,-630.25 318.88,-630.25 318.88,-628.25 212.88,-628.25"/>
<text xml:space="preserve" text-anchor="start" x="214.88" y="-620.25" font-family="IBM Plex Mono" font-size="7.00" fill="#33454f">&#45; turn_id(PK) : INTEGER</text>
<text xml:space="preserve" text-anchor="start" x="214.88" y="-608" font-family="IBM Plex Mono" font-size="7.00" fill="#33454f">&#45; session_id(FK) : INTEGER</text>
<text xml:space="preserve" text-anchor="start" x="214.88" y="-595.75" font-family="IBM Plex Mono" font-size="7.00" fill="#33454f">&#45; seq_index : INTEGER</text>
<text xml:space="preserve" text-anchor="start" x="214.88" y="-583.5" font-family="IBM Plex Mono" font-size="7.00" fill="#33454f">&#45; nutzer_transkript : TEXT</text>
<text xml:space="preserve" text-anchor="start" x="214.88" y="-571.25" font-family="IBM Plex Mono" font-size="7.00" fill="#33454f">&#45; persona_transkript : TEXT</text>
<text xml:space="preserve" text-anchor="start" x="214.88" y="-559" font-family="IBM Plex Mono" font-size="7.00" fill="#33454f">&#45; nutzer_dauer_ms : INTEGER</text>
<text xml:space="preserve" text-anchor="start" x="214.88" y="-546.75" font-family="IBM Plex Mono" font-size="7.00" fill="#33454f">&#45; persona_dauer_ms : INTEGER</text>
</g>
<!-- turn&#45;&gt;session -->
<g id="edge6" class="edge">
<title>turn&#45;&gt;session</title>
<path fill="none" stroke="#325f7f" d="M265.88,-527.08C265.88,-527.08 265.88,-485.18 265.88,-485.18"/>
<polygon fill="#325f7f" stroke="#325f7f" points="265.88,-527.18 261.38,-537.18 265.88,-532.52 265.88,-536.85 265.88,-536.85 265.88,-536.85 265.88,-532.52 270.38,-537.18 265.88,-527.18"/>
<ellipse fill="none" stroke="#325f7f" cx="265.88" cy="-480.68" rx="4" ry="4"/>
</g>
<!-- messung -->
<g id="node8" class="node">
<title>messung</title>
<polygon fill="none" stroke="#1f4a6b" points="245.75,-718.62 245.75,-796.12 350,-796.12 350,-718.62 245.75,-718.62"/>
<text xml:space="preserve" text-anchor="start" x="282.5" y="-787.48" font-family="IBM Plex Mono" font-weight="bold" font-size="7.00" fill="#03253e">messung</text>
<polygon fill="none" stroke="#1f4a6b" points="246.75,-780.88 246.75,-782.88 349,-782.88 349,-780.88 246.75,-780.88"/>
<text xml:space="preserve" text-anchor="start" x="248.75" y="-772.88" font-family="IBM Plex Mono" font-size="7.00" fill="#33454f">&#45; messung_id(PK) : INTEGER</text>
<text xml:space="preserve" text-anchor="start" x="248.75" y="-760.62" font-family="IBM Plex Mono" font-size="7.00" fill="#33454f">&#45; turn_id(FK) : INTEGER</text>
<text xml:space="preserve" text-anchor="start" x="248.75" y="-748.38" font-family="IBM Plex Mono" font-size="7.00" fill="#33454f">&#45; metrik_typ_id(FK) : INTEGER</text>
<text xml:space="preserve" text-anchor="start" x="248.75" y="-736.12" font-family="IBM Plex Mono" font-size="7.00" fill="#33454f">&#45; wert : NUMERIC(10, 4)</text>
<text xml:space="preserve" text-anchor="start" x="248.75" y="-723.88" font-family="IBM Plex Mono" font-size="7.00" fill="#33454f">&#45; detail_json : JSONB</text>
</g>
<!-- messung&#45;&gt;metrik_typ -->
<g id="edge7" class="edge">
<title>messung&#45;&gt;metrik_typ</title>
<path fill="none" stroke="#325f7f" d="M368.14,-757C368.14,-757 382.69,-757 382.69,-757 382.69,-757 382.69,-649.97 382.69,-649.97"/>
<polygon fill="#325f7f" stroke="#325f7f" points="368.03,-757 358.03,-752.5 362.7,-757 358.37,-757 358.37,-757 358.37,-757 362.7,-757 358.03,-761.5 368.03,-757"/>
<ellipse fill="none" stroke="#325f7f" cx="382.69" cy="-645.47" rx="4" ry="4"/>
</g>
<!-- messung&#45;&gt;turn -->
<g id="edge8" class="edge">
<title>messung&#45;&gt;turn</title>
<path fill="none" stroke="#325f7f" d="M267.79,-704.47C267.79,-704.47 267.79,-656.27 267.79,-656.27"/>
<polygon fill="#325f7f" stroke="#325f7f" points="267.79,-704.58 263.29,-714.58 267.79,-709.92 267.79,-714.25 267.79,-714.25 267.79,-714.25 267.79,-709.92 272.29,-714.58 267.79,-704.58"/>
<ellipse fill="none" stroke="#325f7f" cx="267.79" cy="-651.77" rx="4" ry="4"/>
</g>
<!-- befund -->
<g id="node9" class="node">
<title>befund</title>
<polygon fill="none" stroke="#1f4a6b" points="405.75,-712.5 405.75,-802.25 510,-802.25 510,-712.5 405.75,-712.5"/>
<text xml:space="preserve" text-anchor="start" x="445.88" y="-793.6" font-family="IBM Plex Mono" font-weight="bold" font-size="7.00" fill="#03253e">befund</text>
<polygon fill="none" stroke="#1f4a6b" points="406.75,-787 406.75,-789 509,-789 509,-787 406.75,-787"/>
<text xml:space="preserve" text-anchor="start" x="408.75" y="-779" font-family="IBM Plex Mono" font-size="7.00" fill="#33454f">&#45; befund_id(PK) : INTEGER</text>
<text xml:space="preserve" text-anchor="start" x="408.75" y="-766.75" font-family="IBM Plex Mono" font-size="7.00" fill="#33454f">&#45; turn_id(FK) : INTEGER</text>
<text xml:space="preserve" text-anchor="start" x="408.75" y="-754.5" font-family="IBM Plex Mono" font-size="7.00" fill="#33454f">&#45; metrik_typ_id(FK) : INTEGER</text>
<text xml:space="preserve" text-anchor="start" x="408.75" y="-742.25" font-family="IBM Plex Mono" font-size="7.00" fill="#33454f">&#45; kategorie : VARCHAR(60)</text>
<text xml:space="preserve" text-anchor="start" x="408.75" y="-730" font-family="IBM Plex Mono" font-size="7.00" fill="#33454f">&#45; offset_ms : INTEGER</text>
<text xml:space="preserve" text-anchor="start" x="408.75" y="-717.75" font-family="IBM Plex Mono" font-size="7.00" fill="#33454f">&#45; beschreibung : TEXT</text>
</g>
<!-- befund&#45;&gt;metrik_typ -->
<g id="edge10" class="edge">
<title>befund&#45;&gt;metrik_typ</title>
<path fill="none" stroke="#325f7f" d="M459.33,-698.36C459.33,-698.36 459.33,-650.3 459.33,-650.3"/>
<polygon fill="#325f7f" stroke="#325f7f" points="459.33,-698.46 454.83,-708.46 459.33,-703.8 459.33,-708.13 459.33,-708.13 459.33,-708.13 459.33,-703.8 463.83,-708.46 459.33,-698.46"/>
<ellipse fill="none" stroke="#325f7f" cx="459.33" cy="-645.8" rx="4" ry="4"/>
</g>
<!-- befund&#45;&gt;turn -->
<g id="edge9" class="edge">
<title>befund&#45;&gt;turn</title>
<path fill="none" stroke="#325f7f" d="M428.54,-698.47C428.54,-698.47 428.54,-678 428.54,-678 428.54,-678 297.83,-678 297.83,-678 297.83,-678 297.83,-656.13 297.83,-656.13"/>
<polygon fill="#325f7f" stroke="#325f7f" points="428.54,-698.58 424.04,-708.58 428.54,-703.92 428.54,-708.25 428.54,-708.25 428.54,-708.25 428.54,-703.92 433.04,-708.58 428.54,-698.58"/>
<ellipse fill="none" stroke="#325f7f" cx="297.83" cy="-651.63" rx="4" ry="4"/>
</g>
<!-- feedback -->
<g id="node10" class="node">
<title>feedback</title>
<polygon fill="none" stroke="#1f4a6b" points="8,-718.62 8,-796.12 107.75,-796.12 107.75,-718.62 8,-718.62"/>
<text xml:space="preserve" text-anchor="start" x="42.88" y="-787.48" font-family="IBM Plex Mono" font-weight="bold" font-size="7.00" fill="#03253e">feedback</text>
<polygon fill="none" stroke="#1f4a6b" points="9,-780.88 9,-782.88 106.75,-782.88 106.75,-780.88 9,-780.88"/>
<text xml:space="preserve" text-anchor="start" x="11" y="-772.88" font-family="IBM Plex Mono" font-size="7.00" fill="#33454f">&#45; feedback_id(PK) : INTEGER</text>
<text xml:space="preserve" text-anchor="start" x="11" y="-760.62" font-family="IBM Plex Mono" font-size="7.00" fill="#33454f">&#45; session_id(FK) : INTEGER</text>
<text xml:space="preserve" text-anchor="start" x="11" y="-748.38" font-family="IBM Plex Mono" font-size="7.00" fill="#33454f">&#45; zusammenfassung : TEXT</text>
<text xml:space="preserve" text-anchor="start" x="11" y="-736.12" font-family="IBM Plex Mono" font-size="7.00" fill="#33454f">&#45; score : INTEGER</text>
<text xml:space="preserve" text-anchor="start" x="11" y="-723.88" font-family="IBM Plex Mono" font-size="7.00" fill="#33454f">&#45; erstellt_am : DATETIME</text>
</g>
<!-- feedback&#45;&gt;session -->
<g id="edge11" class="edge">
<title>feedback&#45;&gt;session</title>
<path fill="none" stroke="#325f7f" d="M79.62,-703.4C79.62,-703.4 79.62,-461 79.62,-461 79.62,-461 190.42,-461 190.42,-461"/>
<polygon fill="none" stroke="#325f7f" points="76.13,-703.4 79.63,-713.4 83.13,-703.4 76.13,-703.4"/>
<ellipse fill="none" stroke="#325f7f" cx="194.92" cy="-461" rx="4" ry="4"/>
</g>
<!-- feedbackpunkt -->
<g id="node11" class="node">
<title>feedbackpunkt</title>
<polygon fill="none" stroke="#1f4a6b" points="118.38,-871.25 118.38,-948.75 235.38,-948.75 235.38,-871.25 118.38,-871.25"/>
<text xml:space="preserve" text-anchor="start" x="152.12" y="-940.1" font-family="IBM Plex Mono" font-weight="bold" font-size="7.00" fill="#03253e">feedbackpunkt</text>
<polygon fill="none" stroke="#1f4a6b" points="119.38,-933.5 119.38,-935.5 234.38,-935.5 234.38,-933.5 119.38,-933.5"/>
<text xml:space="preserve" text-anchor="start" x="121.38" y="-925.5" font-family="IBM Plex Mono" font-size="7.00" fill="#33454f">&#45; feedbackpunkt_id(PK) : INTEGER</text>
<text xml:space="preserve" text-anchor="start" x="121.38" y="-913.25" font-family="IBM Plex Mono" font-size="7.00" fill="#33454f">&#45; feedback_id(FK) : INTEGER</text>
<text xml:space="preserve" text-anchor="start" x="121.38" y="-901" font-family="IBM Plex Mono" font-size="7.00" fill="#33454f">&#45; turn_id(FK) : INTEGER</text>
<text xml:space="preserve" text-anchor="start" x="121.38" y="-888.75" font-family="IBM Plex Mono" font-size="7.00" fill="#33454f">&#45; befund_id(FK) : INTEGER</text>
<text xml:space="preserve" text-anchor="start" x="121.38" y="-876.5" font-family="IBM Plex Mono" font-size="7.00" fill="#33454f">&#45; text : TEXT</text>
</g>
<!-- feedbackpunkt&#45;&gt;turn -->
<g id="edge12" class="edge">
<title>feedbackpunkt&#45;&gt;turn</title>
<path fill="none" stroke="#325f7f" d="M220.81,-857.07C220.81,-857.07 220.81,-656.24 220.81,-656.24"/>
<polygon fill="#325f7f" stroke="#325f7f" points="220.81,-857.18 216.31,-867.18 220.81,-862.51 220.81,-866.84 220.81,-866.84 220.81,-866.84 220.81,-862.51 225.31,-867.18 220.81,-857.18"/>
<ellipse fill="none" stroke="#325f7f" cx="220.81" cy="-651.74" rx="4" ry="4"/>
</g>
<!-- feedbackpunkt&#45;&gt;befund -->
<g id="edge14" class="edge">
<title>feedbackpunkt&#45;&gt;befund</title>
<path fill="none" stroke="#325f7f" d="M253.55,-910C253.55,-910 457.88,-910 457.88,-910 457.88,-910 457.88,-815.09 457.88,-815.09"/>
<polygon fill="#325f7f" stroke="#325f7f" points="253.45,-910 243.45,-905.5 248.11,-910 243.78,-910 243.78,-910 243.78,-910 248.11,-910 243.45,-914.5 253.45,-910"/>
<ellipse fill="none" stroke="#325f7f" cx="457.88" cy="-810.59" rx="4" ry="4"/>
</g>
<!-- feedbackpunkt&#45;&gt;feedback -->
<g id="edge13" class="edge">
<title>feedbackpunkt&#45;&gt;feedback</title>
<path fill="none" stroke="#325f7f" d="M136,-856.94C136,-856.94 136,-757 136,-757 136,-757 124.47,-757 124.47,-757"/>
<polygon fill="#325f7f" stroke="#325f7f" points="136,-857.05 131.5,-867.05 136,-862.38 136,-866.71 136,-866.71 136,-866.71 136,-862.38 140.5,-867.05 136,-857.05"/>
<ellipse fill="none" stroke="#325f7f" cx="119.97" cy="-757" rx="4" ry="4"/>
</g>
<!-- analysis_job -->
<g id="node12" class="node">
<title>analysis_job</title>
<polygon fill="none" stroke="#1f4a6b" points="538,-541.5 538,-643.5 637.75,-643.5 637.75,-541.5 538,-541.5"/>
<text xml:space="preserve" text-anchor="start" x="566.5" y="-634.85" font-family="IBM Plex Mono" font-weight="bold" font-size="7.00" fill="#03253e">analysis_job</text>
<polygon fill="none" stroke="#1f4a6b" points="539,-628.25 539,-630.25 636.75,-630.25 636.75,-628.25 539,-628.25"/>
<text xml:space="preserve" text-anchor="start" x="541" y="-620.25" font-family="IBM Plex Mono" font-size="7.00" fill="#33454f">&#45; job_id(PK) : INTEGER</text>
<text xml:space="preserve" text-anchor="start" x="541" y="-608" font-family="IBM Plex Mono" font-size="7.00" fill="#33454f">&#45; session_id(FK) : INTEGER</text>
<text xml:space="preserve" text-anchor="start" x="541" y="-595.75" font-family="IBM Plex Mono" font-size="7.00" fill="#33454f">&#45; art : VARCHAR(20)</text>
<text xml:space="preserve" text-anchor="start" x="541" y="-583.5" font-family="IBM Plex Mono" font-size="7.00" fill="#33454f">&#45; status : VARCHAR(20)</text>
<text xml:space="preserve" text-anchor="start" x="541" y="-571.25" font-family="IBM Plex Mono" font-size="7.00" fill="#33454f">&#45; versuche : INTEGER</text>
<text xml:space="preserve" text-anchor="start" x="541" y="-559" font-family="IBM Plex Mono" font-size="7.00" fill="#33454f">&#45; fehlertext : TEXT</text>
<text xml:space="preserve" text-anchor="start" x="541" y="-546.75" font-family="IBM Plex Mono" font-size="7.00" fill="#33454f">&#45; aktualisiert_am : DATETIME</text>
</g>
<!-- analysis_job&#45;&gt;session -->
<g id="edge15" class="edge">
<title>analysis_job&#45;&gt;session</title>
<path fill="none" stroke="#325f7f" d="M587.88,-527.5C587.88,-527.5 587.88,-409 587.88,-409 587.88,-409 341.2,-409 341.2,-409"/>
<polygon fill="#325f7f" stroke="#325f7f" points="587.88,-527.61 583.38,-537.61 587.88,-532.94 587.88,-537.27 587.88,-537.27 587.88,-537.27 587.88,-532.94 592.38,-537.61 587.88,-527.61"/>
<ellipse fill="none" stroke="#325f7f" cx="336.7" cy="-409" rx="4" ry="4"/>
</g>
</g>
</svg>
