<?xml version="1.0" encoding="UTF-8" standalone="no"?>
<!DOCTYPE svg PUBLIC "-//W3C//DTD SVG 1.1//EN"
 "http://www.w3.org/Graphics/SVG/1.1/DTD/svg11.dtd">
<!-- Generated by graphviz version 15.1.1 (20260805.0921)
 -->
<!-- Title: G Pages: 1 -->
<svg width="890pt" height="901pt"
 viewBox="0.00 0.00 890.00 901.00" xmlns="http://www.w3.org/2000/svg" xmlns:xlink="http://www.w3.org/1999/xlink">
<g id="graph0" class="graph" transform="scale(1 1) rotate(0) translate(28.8 871.8)">
<title>G</title>
<polygon fill="#f5f8fb" stroke="none" points="-28.8,28.8 -28.8,-871.8 861.05,-871.8 861.05,28.8 -28.8,28.8"/>
<!-- persona -->
<g id="node1" class="node">
<title>persona</title>
<polygon fill="none" stroke="#1f4a6b" points="130.12,-113.75 130.12,-289.25 250.12,-289.25 250.12,-113.75 130.12,-113.75"/>
<text xml:space="preserve" text-anchor="start" x="176.25" y="-280.6" font-family="IBM Plex Mono" font-weight="bold" font-size="7.00" fill="#03253e">persona</text>
<polygon fill="none" stroke="#1f4a6b" points="131.12,-274 131.12,-276 249.12,-276 249.12,-274 131.12,-274"/>
<text xml:space="preserve" text-anchor="start" x="133.12" y="-266" font-family="IBM Plex Mono" font-size="7.00" fill="#33454f">&#45; persona_id(PK) : INTEGER</text>
<text xml:space="preserve" text-anchor="start" x="133.12" y="-253.75" font-family="IBM Plex Mono" font-size="7.00" fill="#33454f">&#45; key : VARCHAR(60)</text>
<text xml:space="preserve" text-anchor="start" x="133.12" y="-241.5" font-family="IBM Plex Mono" font-size="7.00" fill="#33454f">&#45; name : VARCHAR(120)</text>
<text xml:space="preserve" text-anchor="start" x="133.12" y="-229.25" font-family="IBM Plex Mono" font-size="7.00" fill="#33454f">&#45; role_label : VARCHAR(120)</text>
<text xml:space="preserve" text-anchor="start" x="133.12" y="-217" font-family="IBM Plex Mono" font-size="7.00" fill="#33454f">&#45; role : VARCHAR(120)</text>
<text xml:space="preserve" text-anchor="start" x="133.12" y="-204.75" font-family="IBM Plex Mono" font-size="7.00" fill="#33454f">&#45; traits : VARCHAR(120)</text>
<text xml:space="preserve" text-anchor="start" x="133.12" y="-192.5" font-family="IBM Plex Mono" font-size="7.00" fill="#33454f">&#45; behavior : TEXT</text>
<text xml:space="preserve" text-anchor="start" x="133.12" y="-180.25" font-family="IBM Plex Mono" font-size="7.00" fill="#33454f">&#45; training_goal : TEXT</text>
<text xml:space="preserve" text-anchor="start" x="133.12" y="-168" font-family="IBM Plex Mono" font-size="7.00" fill="#33454f">&#45; difficulty : VARCHAR(40)</text>
<text xml:space="preserve" text-anchor="start" x="133.12" y="-155.75" font-family="IBM Plex Mono" font-size="7.00" fill="#33454f">&#45; language_code(FK) : VARCHAR(8)</text>
<text xml:space="preserve" text-anchor="start" x="133.12" y="-143.5" font-family="IBM Plex Mono" font-size="7.00" fill="#33454f">&#45; tts_voice : VARCHAR(60)</text>
<text xml:space="preserve" text-anchor="start" x="133.12" y="-131.25" font-family="IBM Plex Mono" font-size="7.00" fill="#33454f">&#45; kugelaudio_voice_id : INTEGER</text>
<text xml:space="preserve" text-anchor="start" x="133.12" y="-119" font-family="IBM Plex Mono" font-size="7.00" fill="#33454f">&#45; active : BOOLEAN</text>
</g>
<!-- language -->
<g id="node4" class="node">
<title>language</title>
<polygon fill="none" stroke="#1f4a6b" points="297.88,-4 297.88,-44.75 386.38,-44.75 386.38,-4 297.88,-4"/>
<text xml:space="preserve" text-anchor="start" x="326.38" y="-36.1" font-family="IBM Plex Mono" font-weight="bold" font-size="7.00" fill="#03253e">language</text>
<polygon fill="none" stroke="#1f4a6b" points="298.88,-29.5 298.88,-31.5 385.38,-31.5 385.38,-29.5 298.88,-29.5"/>
<text xml:space="preserve" text-anchor="start" x="300.88" y="-21.5" font-family="IBM Plex Mono" font-size="7.00" fill="#33454f">&#45; code(PK) : VARCHAR(8)</text>
<text xml:space="preserve" text-anchor="start" x="300.88" y="-9.25" font-family="IBM Plex Mono" font-size="7.00" fill="#33454f">&#45; name : VARCHAR(60)</text>
</g>
<!-- persona&#45;&gt;language -->
<g id="edge1" class="edge">
<title>persona&#45;&gt;language</title>
<path fill="none" stroke="#325f7f" d="M268.28,-119C268.28,-119 292.5,-119 292.5,-119 292.5,-119 292.5,-57.74 292.5,-57.74"/>
<polygon fill="#325f7f" stroke="#325f7f" points="268.17,-119 258.18,-114.5 262.84,-119 258.51,-119 258.51,-119 258.51,-119 262.84,-119 258.17,-123.5 268.17,-119"/>
<ellipse fill="none" stroke="#325f7f" cx="292.5" cy="-53.24" rx="4" ry="4"/>
</g>
<!-- persona_objection -->
<g id="node2" class="node">
<title>persona_objection</title>
<polygon fill="none" stroke="#1f4a6b" points="140.62,-388.88 140.62,-454.12 239.62,-454.12 239.62,-388.88 140.62,-388.88"/>
<text xml:space="preserve" text-anchor="start" x="158.25" y="-445.48" font-family="IBM Plex Mono" font-weight="bold" font-size="7.00" fill="#03253e">persona_objection</text>
<polygon fill="none" stroke="#1f4a6b" points="141.62,-438.88 141.62,-440.88 238.62,-440.88 238.62,-438.88 141.62,-438.88"/>
<text xml:space="preserve" text-anchor="start" x="143.62" y="-430.88" font-family="IBM Plex Mono" font-size="7.00" fill="#33454f">&#45; objection_id(PK) : INTEGER</text>
<text xml:space="preserve" text-anchor="start" x="143.62" y="-418.62" font-family="IBM Plex Mono" font-size="7.00" fill="#33454f">&#45; persona_id(FK) : INTEGER</text>
<text xml:space="preserve" text-anchor="start" x="143.62" y="-406.38" font-family="IBM Plex Mono" font-size="7.00" fill="#33454f">&#45; position : INTEGER</text>
<text xml:space="preserve" text-anchor="start" x="143.62" y="-394.12" font-family="IBM Plex Mono" font-size="7.00" fill="#33454f">&#45; text : TEXT</text>
</g>
<!-- persona_objection&#45;&gt;persona -->
<g id="edge2" class="edge">
<title>persona_objection&#45;&gt;persona</title>
<path fill="none" stroke="#325f7f" d="M190.12,-374.73C190.12,-374.73 190.12,-301.96 190.12,-301.96"/>
<polygon fill="#325f7f" stroke="#325f7f" points="190.13,-374.84 185.63,-384.84 190.13,-380.17 190.13,-384.5 190.13,-384.5 190.13,-384.5 190.13,-380.17 194.63,-384.84 190.13,-374.84"/>
<ellipse fill="none" stroke="#325f7f" cx="190.13" cy="-297.46" rx="4" ry="4"/>
</g>
<!-- scenario -->
<g id="node3" class="node">
<title>scenario</title>
<polygon fill="none" stroke="#1f4a6b" points="305.75,-132.12 305.75,-270.88 426.5,-270.88 426.5,-132.12 305.75,-132.12"/>
<text xml:space="preserve" text-anchor="start" x="351.5" y="-262.23" font-family="IBM Plex Mono" font-weight="bold" font-size="7.00" fill="#03253e">scenario</text>
<polygon fill="none" stroke="#1f4a6b" points="306.75,-255.62 306.75,-257.62 425.5,-257.62 425.5,-255.62 306.75,-255.62"/>
<text xml:space="preserve" text-anchor="start" x="308.75" y="-247.62" font-family="IBM Plex Mono" font-size="7.00" fill="#33454f">&#45; scenario_id(PK) : INTEGER</text>
<text xml:space="preserve" text-anchor="start" x="308.75" y="-235.38" font-family="IBM Plex Mono" font-size="7.00" fill="#33454f">&#45; key : VARCHAR(60)</text>
<text xml:space="preserve" text-anchor="start" x="308.75" y="-223.12" font-family="IBM Plex Mono" font-size="7.00" fill="#33454f">&#45; scenario_type : VARCHAR(60)</text>
<text xml:space="preserve" text-anchor="start" x="308.75" y="-210.88" font-family="IBM Plex Mono" font-size="7.00" fill="#33454f">&#45; title : VARCHAR(160)</text>
<text xml:space="preserve" text-anchor="start" x="308.75" y="-198.62" font-family="IBM Plex Mono" font-size="7.00" fill="#33454f">&#45; short_description : VARCHAR(240)</text>
<text xml:space="preserve" text-anchor="start" x="308.75" y="-186.38" font-family="IBM Plex Mono" font-size="7.00" fill="#33454f">&#45; description : TEXT</text>
<text xml:space="preserve" text-anchor="start" x="308.75" y="-174.12" font-family="IBM Plex Mono" font-size="7.00" fill="#33454f">&#45; case_facts : TEXT</text>
<text xml:space="preserve" text-anchor="start" x="308.75" y="-161.88" font-family="IBM Plex Mono" font-size="7.00" fill="#33454f">&#45; call_goal : TEXT</text>
<text xml:space="preserve" text-anchor="start" x="308.75" y="-149.62" font-family="IBM Plex Mono" font-size="7.00" fill="#33454f">&#45; success_condition : TEXT</text>
<text xml:space="preserve" text-anchor="start" x="308.75" y="-137.38" font-family="IBM Plex Mono" font-size="7.00" fill="#33454f">&#45; active : BOOLEAN</text>
</g>
<!-- metric_type -->
<g id="node5" class="node">
<title>metric_type</title>
<polygon fill="none" stroke="#1f4a6b" points="640.12,-376.62 640.12,-466.38 748.12,-466.38 748.12,-376.62 640.12,-376.62"/>
<text xml:space="preserve" text-anchor="start" x="674.62" y="-457.73" font-family="IBM Plex Mono" font-weight="bold" font-size="7.00" fill="#03253e">metric_type</text>
<polygon fill="none" stroke="#1f4a6b" points="641.12,-451.12 641.12,-453.12 747.12,-453.12 747.12,-451.12 641.12,-451.12"/>
<text xml:space="preserve" text-anchor="start" x="643.12" y="-443.12" font-family="IBM Plex Mono" font-size="7.00" fill="#33454f">&#45; metric_type_id(PK) : INTEGER</text>
<text xml:space="preserve" text-anchor="start" x="643.12" y="-430.88" font-family="IBM Plex Mono" font-size="7.00" fill="#33454f">&#45; key : VARCHAR(60)</text>
<text xml:space="preserve" text-anchor="start" x="643.12" y="-418.62" font-family="IBM Plex Mono" font-size="7.00" fill="#33454f">&#45; name : VARCHAR(120)</text>
<text xml:space="preserve" text-anchor="start" x="643.12" y="-406.38" font-family="IBM Plex Mono" font-size="7.00" fill="#33454f">&#45; unit : VARCHAR(40)</text>
<text xml:space="preserve" text-anchor="start" x="643.12" y="-394.12" font-family="IBM Plex Mono" font-size="7.00" fill="#33454f">&#45; feature_id : VARCHAR(10)</text>
<text xml:space="preserve" text-anchor="start" x="643.12" y="-381.88" font-family="IBM Plex Mono" font-size="7.00" fill="#33454f">&#45; active : BOOLEAN</text>
</g>
<!-- session -->
<g id="node6" class="node">
<title>session</title>
<polygon fill="none" stroke="#1f4a6b" points="306.12,-358.25 306.12,-484.75 426.12,-484.75 426.12,-358.25 306.12,-358.25"/>
<text xml:space="preserve" text-anchor="start" x="353" y="-476.1" font-family="IBM Plex Mono" font-weight="bold" font-size="7.00" fill="#03253e">session</text>
<polygon fill="none" stroke="#1f4a6b" points="307.12,-469.5 307.12,-471.5 425.12,-471.5 425.12,-469.5 307.12,-469.5"/>
<text xml:space="preserve" text-anchor="start" x="309.12" y="-461.5" font-family="IBM Plex Mono" font-size="7.00" fill="#33454f">&#45; session_id(PK) : INTEGER</text>
<text xml:space="preserve" text-anchor="start" x="309.12" y="-449.25" font-family="IBM Plex Mono" font-size="7.00" fill="#33454f">&#45; extern_id : CHAR(32)</text>
<text xml:space="preserve" text-anchor="start" x="309.12" y="-437" font-family="IBM Plex Mono" font-size="7.00" fill="#33454f">&#45; subject_id : VARCHAR(64)</text>
<text xml:space="preserve" text-anchor="start" x="309.12" y="-424.75" font-family="IBM Plex Mono" font-size="7.00" fill="#33454f">&#45; persona_id(FK) : INTEGER</text>
<text xml:space="preserve" text-anchor="start" x="309.12" y="-412.5" font-family="IBM Plex Mono" font-size="7.00" fill="#33454f">&#45; scenario_id(FK) : INTEGER</text>
<text xml:space="preserve" text-anchor="start" x="309.12" y="-400.25" font-family="IBM Plex Mono" font-size="7.00" fill="#33454f">&#45; language_code(FK) : VARCHAR(8)</text>
<text xml:space="preserve" text-anchor="start" x="309.12" y="-388" font-family="IBM Plex Mono" font-size="7.00" fill="#33454f">&#45; status : VARCHAR(20)</text>
<text xml:space="preserve" text-anchor="start" x="309.12" y="-375.75" font-family="IBM Plex Mono" font-size="7.00" fill="#33454f">&#45; started_at : DATETIME</text>
<text xml:space="preserve" text-anchor="start" x="309.12" y="-363.5" font-family="IBM Plex Mono" font-size="7.00" fill="#33454f">&#45; ended_at : DATETIME</text>
</g>
<!-- session&#45;&gt;persona -->
<g id="edge5" class="edge">
<title>session&#45;&gt;persona</title>
<path fill="none" stroke="#325f7f" d="M287.84,-375C287.84,-375 252.88,-375 252.88,-375 252.88,-375 252.88,-302.08 252.88,-302.08"/>
<polygon fill="#325f7f" stroke="#325f7f" points="287.95,-375 297.95,-379.5 293.29,-375 297.62,-375 297.62,-375 297.62,-375 293.29,-375 297.95,-370.5 287.95,-375"/>
<ellipse fill="none" stroke="#325f7f" cx="252.88" cy="-297.58" rx="4" ry="4"/>
</g>
<!-- session&#45;&gt;scenario -->
<g id="edge3" class="edge">
<title>session&#45;&gt;scenario</title>
<path fill="none" stroke="#325f7f" d="M366.12,-343.86C366.12,-343.86 366.12,-283.8 366.12,-283.8"/>
<polygon fill="#325f7f" stroke="#325f7f" points="366.13,-343.96 361.63,-353.96 366.13,-349.3 366.13,-353.63 366.13,-353.63 366.13,-353.63 366.13,-349.3 370.63,-353.96 366.13,-343.96"/>
<ellipse fill="none" stroke="#325f7f" cx="366.13" cy="-279.3" rx="4" ry="4"/>
</g>
<!-- session&#45;&gt;language -->
<g id="edge4" class="edge">
<title>session&#45;&gt;language</title>
<path fill="none" stroke="#325f7f" d="M295.43,-364C295.43,-364 295.12,-364 295.12,-364 295.12,-364 295.12,-57.53 295.12,-57.53"/>
<polygon fill="#325f7f" stroke="#325f7f" points="287.84,-364 297.84,-368.5 293.18,-364 297.51,-364 297.51,-364 297.51,-364 293.18,-364 297.84,-359.5 287.84,-364"/>
<ellipse fill="none" stroke="#325f7f" cx="295.13" cy="-53.03" rx="4" ry="4"/>
</g>
<!-- turn -->
<g id="node7" class="node">
<title>turn</title>
<polygon fill="none" stroke="#1f4a6b" points="8,-553.75 8,-655.75 106.25,-655.75 106.25,-553.75 8,-553.75"/>
<text xml:space="preserve" text-anchor="start" x="50" y="-647.1" font-family="IBM Plex Mono" font-weight="bold" font-size="7.00" fill="#03253e">turn</text>
<polygon fill="none" stroke="#1f4a6b" points="9,-640.5 9,-642.5 105.25,-642.5 105.25,-640.5 9,-640.5"/>
<text xml:space="preserve" text-anchor="start" x="11" y="-632.5" font-family="IBM Plex Mono" font-size="7.00" fill="#33454f">&#45; turn_id(PK) : INTEGER</text>
<text xml:space="preserve" text-anchor="start" x="11" y="-620.25" font-family="IBM Plex Mono" font-size="7.00" fill="#33454f">&#45; session_id(FK) : INTEGER</text>
<text xml:space="preserve" text-anchor="start" x="11" y="-608" font-family="IBM Plex Mono" font-size="7.00" fill="#33454f">&#45; speaker : VARCHAR(10)</text>
<text xml:space="preserve" text-anchor="start" x="11" y="-595.75" font-family="IBM Plex Mono" font-size="7.00" fill="#33454f">&#45; seq_index : INTEGER</text>
<text xml:space="preserve" text-anchor="start" x="11" y="-583.5" font-family="IBM Plex Mono" font-size="7.00" fill="#33454f">&#45; start_offset_ms : INTEGER</text>
<text xml:space="preserve" text-anchor="start" x="11" y="-571.25" font-family="IBM Plex Mono" font-size="7.00" fill="#33454f">&#45; duration_ms : INTEGER</text>
<text xml:space="preserve" text-anchor="start" x="11" y="-559" font-family="IBM Plex Mono" font-size="7.00" fill="#33454f">&#45; transcript : TEXT</text>
</g>
<!-- turn&#45;&gt;session -->
<g id="edge6" class="edge">
<title>turn&#45;&gt;session</title>
<path fill="none" stroke="#325f7f" d="M57.12,-539.47C57.12,-539.47 57.12,-468 57.12,-468 57.12,-468 289.31,-468 289.31,-468"/>
<polygon fill="#325f7f" stroke="#325f7f" points="57.13,-539.58 52.63,-549.58 57.13,-544.92 57.13,-549.25 57.13,-549.25 57.13,-549.25 57.13,-544.92 61.63,-549.58 57.13,-539.58"/>
<ellipse fill="none" stroke="#325f7f" cx="293.81" cy="-468" rx="4" ry="4"/>
</g>
<!-- measurement -->
<g id="node8" class="node">
<title>measurement</title>
<polygon fill="none" stroke="#1f4a6b" points="470.12,-566 470.12,-643.5 584.12,-643.5 584.12,-566 470.12,-566"/>
<text xml:space="preserve" text-anchor="start" x="504.62" y="-634.85" font-family="IBM Plex Mono" font-weight="bold" font-size="7.00" fill="#03253e">measurement</text>
<polygon fill="none" stroke="#1f4a6b" points="471.12,-628.25 471.12,-630.25 583.12,-630.25 583.12,-628.25 471.12,-628.25"/>
<text xml:space="preserve" text-anchor="start" x="473.12" y="-620.25" font-family="IBM Plex Mono" font-size="7.00" fill="#33454f">&#45; measurement_id(PK) : INTEGER</text>
<text xml:space="preserve" text-anchor="start" x="473.12" y="-608" font-family="IBM Plex Mono" font-size="7.00" fill="#33454f">&#45; session_id(FK) : INTEGER</text>
<text xml:space="preserve" text-anchor="start" x="473.12" y="-595.75" font-family="IBM Plex Mono" font-size="7.00" fill="#33454f">&#45; metric_type_id(FK) : INTEGER</text>
<text xml:space="preserve" text-anchor="start" x="473.12" y="-583.5" font-family="IBM Plex Mono" font-size="7.00" fill="#33454f">&#45; value : NUMERIC(10, 4)</text>
<text xml:space="preserve" text-anchor="start" x="473.12" y="-571.25" font-family="IBM Plex Mono" font-size="7.00" fill="#33454f">&#45; detail_json : JSONB</text>
</g>
<!-- measurement&#45;&gt;metric_type -->
<g id="edge7" class="edge">
<title>measurement&#45;&gt;metric_type</title>
<path fill="none" stroke="#325f7f" d="M527.12,-551.8C527.12,-551.8 527.12,-438 527.12,-438 527.12,-438 623.41,-438 623.41,-438"/>
<polygon fill="#325f7f" stroke="#325f7f" points="527.13,-551.91 522.63,-561.91 527.13,-557.24 527.13,-561.57 527.13,-561.57 527.13,-561.57 527.13,-557.24 531.63,-561.91 527.13,-551.91"/>
<ellipse fill="none" stroke="#325f7f" cx="627.91" cy="-438" rx="4" ry="4"/>
</g>
<!-- measurement&#45;&gt;session -->
<g id="edge8" class="edge">
<title>measurement&#45;&gt;session</title>
<path fill="none" stroke="#325f7f" d="M451.91,-605C451.91,-605 427.94,-605 427.94,-605 427.94,-605 427.94,-497.53 427.94,-497.53"/>
<polygon fill="#325f7f" stroke="#325f7f" points="452.02,-605 462.02,-609.5 457.35,-605 461.68,-605 461.68,-605 461.68,-605 457.35,-605 462.02,-600.5 452.02,-605"/>
<ellipse fill="none" stroke="#325f7f" cx="427.94" cy="-493.03" rx="4" ry="4"/>
</g>
<!-- finding -->
<g id="node9" class="node">
<title>finding</title>
<polygon fill="none" stroke="#1f4a6b" points="640.12,-559.88 640.12,-649.62 748.12,-649.62 748.12,-559.88 640.12,-559.88"/>
<text xml:space="preserve" text-anchor="start" x="681.75" y="-640.98" font-family="IBM Plex Mono" font-weight="bold" font-size="7.00" fill="#03253e">finding</text>
<polygon fill="none" stroke="#1f4a6b" points="641.12,-634.38 641.12,-636.38 747.12,-636.38 747.12,-634.38 641.12,-634.38"/>
<text xml:space="preserve" text-anchor="start" x="643.12" y="-626.38" font-family="IBM Plex Mono" font-size="7.00" fill="#33454f">&#45; finding_id(PK) : INTEGER</text>
<text xml:space="preserve" text-anchor="start" x="643.12" y="-614.12" font-family="IBM Plex Mono" font-size="7.00" fill="#33454f">&#45; session_id(FK) : INTEGER</text>
<text xml:space="preserve" text-anchor="start" x="643.12" y="-601.88" font-family="IBM Plex Mono" font-size="7.00" fill="#33454f">&#45; metric_type_id(FK) : INTEGER</text>
<text xml:space="preserve" text-anchor="start" x="643.12" y="-589.62" font-family="IBM Plex Mono" font-size="7.00" fill="#33454f">&#45; category : VARCHAR(60)</text>
<text xml:space="preserve" text-anchor="start" x="643.12" y="-577.38" font-family="IBM Plex Mono" font-size="7.00" fill="#33454f">&#45; offset_ms : INTEGER</text>
<text xml:space="preserve" text-anchor="start" x="643.12" y="-565.12" font-family="IBM Plex Mono" font-size="7.00" fill="#33454f">&#45; description : TEXT</text>
</g>
<!-- finding&#45;&gt;metric_type -->
<g id="edge9" class="edge">
<title>finding&#45;&gt;metric_type</title>
<path fill="none" stroke="#325f7f" d="M714.79,-545.68C714.79,-545.68 714.79,-479.35 714.79,-479.35"/>
<polygon fill="#325f7f" stroke="#325f7f" points="714.79,-545.79 710.29,-555.79 714.79,-551.12 714.79,-555.45 714.79,-555.45 714.79,-555.45 714.79,-551.12 719.29,-555.79 714.79,-545.79"/>
<ellipse fill="none" stroke="#325f7f" cx="714.79" cy="-474.85" rx="4" ry="4"/>
</g>
<!-- finding&#45;&gt;session -->
<g id="edge10" class="edge">
<title>finding&#45;&gt;session</title>
<path fill="none" stroke="#325f7f" d="M673.46,-545.72C673.46,-545.72 673.46,-480 673.46,-480 673.46,-480 442.95,-480 442.95,-480"/>
<polygon fill="#325f7f" stroke="#325f7f" points="673.46,-545.83 668.96,-555.83 673.46,-551.16 673.46,-555.49 673.46,-555.49 673.46,-555.49 673.46,-551.16 677.96,-555.83 673.46,-545.83"/>
<ellipse fill="none" stroke="#325f7f" cx="438.45" cy="-480" rx="4" ry="4"/>
</g>
<!-- feedback -->
<g id="node10" class="node">
<title>feedback</title>
<polygon fill="none" stroke="#1f4a6b" points="162.25,-559.88 162.25,-649.62 262,-649.62 262,-559.88 162.25,-559.88"/>
<text xml:space="preserve" text-anchor="start" x="197.12" y="-640.98" font-family="IBM Plex Mono" font-weight="bold" font-size="7.00" fill="#03253e">feedback</text>
<polygon fill="none" stroke="#1f4a6b" points="163.25,-634.38 163.25,-636.38 261,-636.38 261,-634.38 163.25,-634.38"/>
<text xml:space="preserve" text-anchor="start" x="165.25" y="-626.38" font-family="IBM Plex Mono" font-size="7.00" fill="#33454f">&#45; feedback_id(PK) : INTEGER</text>
<text xml:space="preserve" text-anchor="start" x="165.25" y="-614.12" font-family="IBM Plex Mono" font-size="7.00" fill="#33454f">&#45; session_id(FK) : INTEGER</text>
<text xml:space="preserve" text-anchor="start" x="165.25" y="-601.88" font-family="IBM Plex Mono" font-size="7.00" fill="#33454f">&#45; summary : TEXT</text>
<text xml:space="preserve" text-anchor="start" x="165.25" y="-589.62" font-family="IBM Plex Mono" font-size="7.00" fill="#33454f">&#45; phase_language : TEXT</text>
<text xml:space="preserve" text-anchor="start" x="165.25" y="-577.38" font-family="IBM Plex Mono" font-size="7.00" fill="#33454f">&#45; score : INTEGER</text>
<text xml:space="preserve" text-anchor="start" x="165.25" y="-565.12" font-family="IBM Plex Mono" font-size="7.00" fill="#33454f">&#45; created_at : DATETIME</text>
</g>
<!-- feedback&#45;&gt;session -->
<g id="edge11" class="edge">
<title>feedback&#45;&gt;session</title>
<path fill="none" stroke="#325f7f" d="M264.06,-544.62C264.06,-544.62 264.06,-479 264.06,-479 264.06,-479 289.33,-479 289.33,-479"/>
<polygon fill="none" stroke="#325f7f" points="260.56,-544.62 264.06,-554.62 267.56,-544.62 260.56,-544.62"/>
<ellipse fill="none" stroke="#325f7f" cx="293.83" cy="-479" rx="4" ry="4"/>
</g>
<!-- feedback_point -->
<g id="node11" class="node">
<title>feedback_point</title>
<polygon fill="none" stroke="#1f4a6b" points="393.88,-724.75 393.88,-839 512.38,-839 512.38,-724.75 393.88,-724.75"/>
<text xml:space="preserve" text-anchor="start" x="427.25" y="-830.35" font-family="IBM Plex Mono" font-weight="bold" font-size="7.00" fill="#03253e">feedback_point</text>
<polygon fill="none" stroke="#1f4a6b" points="394.88,-823.75 394.88,-825.75 511.38,-825.75 511.38,-823.75 394.88,-823.75"/>
<text xml:space="preserve" text-anchor="start" x="396.88" y="-815.75" font-family="IBM Plex Mono" font-size="7.00" fill="#33454f">&#45; feedback_point_id(PK) : INTEGER</text>
<text xml:space="preserve" text-anchor="start" x="396.88" y="-803.5" font-family="IBM Plex Mono" font-size="7.00" fill="#33454f">&#45; feedback_id(FK) : INTEGER</text>
<text xml:space="preserve" text-anchor="start" x="396.88" y="-791.25" font-family="IBM Plex Mono" font-size="7.00" fill="#33454f">&#45; turn_id(FK) : INTEGER</text>
<text xml:space="preserve" text-anchor="start" x="396.88" y="-779" font-family="IBM Plex Mono" font-size="7.00" fill="#33454f">&#45; finding_id(FK) : INTEGER</text>
<text xml:space="preserve" text-anchor="start" x="396.88" y="-766.75" font-family="IBM Plex Mono" font-size="7.00" fill="#33454f">&#45; metric_type_id(FK) : INTEGER</text>
<text xml:space="preserve" text-anchor="start" x="396.88" y="-754.5" font-family="IBM Plex Mono" font-size="7.00" fill="#33454f">&#45; kind : VARCHAR(20)</text>
<text xml:space="preserve" text-anchor="start" x="396.88" y="-742.25" font-family="IBM Plex Mono" font-size="7.00" fill="#33454f">&#45; position : INTEGER</text>
<text xml:space="preserve" text-anchor="start" x="396.88" y="-730" font-family="IBM Plex Mono" font-size="7.00" fill="#33454f">&#45; text : TEXT</text>
</g>
<!-- feedback_point&#45;&gt;metric_type -->
<g id="edge12" class="edge">
<title>feedback_point&#45;&gt;metric_type</title>
<path fill="none" stroke="#325f7f" d="M448.31,-710.46C448.31,-710.46 448.31,-405 448.31,-405 448.31,-405 623.41,-405 623.41,-405"/>
<polygon fill="#325f7f" stroke="#325f7f" points="448.31,-710.57 443.81,-720.57 448.31,-715.9 448.31,-720.24 448.31,-720.24 448.31,-720.24 448.31,-715.9 452.81,-720.57 448.31,-710.57"/>
<ellipse fill="none" stroke="#325f7f" cx="627.91" cy="-405" rx="4" ry="4"/>
</g>
<!-- feedback_point&#45;&gt;turn -->
<g id="edge15" class="edge">
<title>feedback_point&#45;&gt;turn</title>
<path fill="none" stroke="#325f7f" d="M375.51,-802C375.51,-802 57.12,-802 57.12,-802 57.12,-802 57.12,-668.7 57.12,-668.7"/>
<polygon fill="#325f7f" stroke="#325f7f" points="375.61,-802 385.61,-806.5 380.95,-802 385.28,-802 385.28,-802 385.28,-802 380.95,-802 385.61,-797.5 375.61,-802"/>
<ellipse fill="none" stroke="#325f7f" cx="57.13" cy="-664.2" rx="4" ry="4"/>
</g>
<!-- feedback_point&#45;&gt;finding -->
<g id="edge13" class="edge">
<title>feedback_point&#45;&gt;finding</title>
<path fill="none" stroke="#325f7f" d="M530.66,-727C530.66,-727 652.12,-727 652.12,-727 652.12,-727 652.12,-662.42 652.12,-662.42"/>
<polygon fill="#325f7f" stroke="#325f7f" points="530.55,-727 520.55,-722.5 525.22,-727 520.89,-727 520.89,-727 520.89,-727 525.22,-727 520.55,-731.5 530.55,-727"/>
<ellipse fill="none" stroke="#325f7f" cx="652.13" cy="-657.92" rx="4" ry="4"/>
</g>
<!-- feedback_point&#45;&gt;feedback -->
<g id="edge14" class="edge">
<title>feedback_point&#45;&gt;feedback</title>
<path fill="none" stroke="#325f7f" d="M375.55,-762C375.55,-762 212.12,-762 212.12,-762 212.12,-762 212.12,-662.21 212.12,-662.21"/>
<polygon fill="#325f7f" stroke="#325f7f" points="375.66,-762 385.66,-766.5 380.99,-762 385.32,-762 385.32,-762 385.32,-762 380.99,-762 385.66,-757.5 375.66,-762"/>
<ellipse fill="none" stroke="#325f7f" cx="212.13" cy="-657.71" rx="4" ry="4"/>
</g>
<!-- consent -->
<g id="node12" class="node">
<title>consent</title>
<polygon fill="none" stroke="#1f4a6b" points="568.12,-737 568.12,-826.75 664.12,-826.75 664.12,-737 568.12,-737"/>
<text xml:space="preserve" text-anchor="start" x="602.62" y="-818.1" font-family="IBM Plex Mono" font-weight="bold" font-size="7.00" fill="#03253e">consent</text>
<polygon fill="none" stroke="#1f4a6b" points="569.12,-811.5 569.12,-813.5 663.12,-813.5 663.12,-811.5 569.12,-811.5"/>
<text xml:space="preserve" text-anchor="start" x="571.12" y="-803.5" font-family="IBM Plex Mono" font-size="7.00" fill="#33454f">&#45; consent_id(PK) : INTEGER</text>
<text xml:space="preserve" text-anchor="start" x="571.12" y="-791.25" font-family="IBM Plex Mono" font-size="7.00" fill="#33454f">&#45; subject_id : VARCHAR(64)</text>
<text xml:space="preserve" text-anchor="start" x="571.12" y="-779" font-family="IBM Plex Mono" font-size="7.00" fill="#33454f">&#45; purpose : VARCHAR(40)</text>
<text xml:space="preserve" text-anchor="start" x="571.12" y="-766.75" font-family="IBM Plex Mono" font-size="7.00" fill="#33454f">&#45; version : VARCHAR(20)</text>
<text xml:space="preserve" text-anchor="start" x="571.12" y="-754.5" font-family="IBM Plex Mono" font-size="7.00" fill="#33454f">&#45; status : VARCHAR(20)</text>
<text xml:space="preserve" text-anchor="start" x="571.12" y="-742.25" font-family="IBM Plex Mono" font-size="7.00" fill="#33454f">&#45; decided_at : DATETIME</text>
</g>
<!-- retention_preference -->
<g id="node13" class="node">
<title>retention_preference</title>
<polygon fill="none" stroke="#1f4a6b" points="720,-749.25 720,-814.5 824.25,-814.5 824.25,-749.25 720,-749.25"/>
<text xml:space="preserve" text-anchor="start" x="736.88" y="-805.85" font-family="IBM Plex Mono" font-weight="bold" font-size="7.00" fill="#03253e">retention_preference</text>
<polygon fill="none" stroke="#1f4a6b" points="721,-799.25 721,-801.25 823.25,-801.25 823.25,-799.25 721,-799.25"/>
<text xml:space="preserve" text-anchor="start" x="723" y="-791.25" font-family="IBM Plex Mono" font-size="7.00" fill="#33454f">&#45; preference_id(PK) : INTEGER</text>
<text xml:space="preserve" text-anchor="start" x="723" y="-779" font-family="IBM Plex Mono" font-size="7.00" fill="#33454f">&#45; subject_id : VARCHAR(64)</text>
<text xml:space="preserve" text-anchor="start" x="723" y="-766.75" font-family="IBM Plex Mono" font-size="7.00" fill="#33454f">&#45; auto_delete : BOOLEAN</text>
<text xml:space="preserve" text-anchor="start" x="723" y="-754.5" font-family="IBM Plex Mono" font-size="7.00" fill="#33454f">&#45; updated_at : DATETIME</text>
</g>
<!-- analysis_job -->
<g id="node14" class="node">
<title>analysis_job</title>
<polygon fill="none" stroke="#1f4a6b" points="318.5,-553.75 318.5,-655.75 413.75,-655.75 413.75,-553.75 318.5,-553.75"/>
<text xml:space="preserve" text-anchor="start" x="344.75" y="-647.1" font-family="IBM Plex Mono" font-weight="bold" font-size="7.00" fill="#03253e">analysis_job</text>
<polygon fill="none" stroke="#1f4a6b" points="319.5,-640.5 319.5,-642.5 412.75,-642.5 412.75,-640.5 319.5,-640.5"/>
<text xml:space="preserve" text-anchor="start" x="321.5" y="-632.5" font-family="IBM Plex Mono" font-size="7.00" fill="#33454f">&#45; job_id(PK) : INTEGER</text>
<text xml:space="preserve" text-anchor="start" x="321.5" y="-620.25" font-family="IBM Plex Mono" font-size="7.00" fill="#33454f">&#45; session_id(FK) : INTEGER</text>
<text xml:space="preserve" text-anchor="start" x="321.5" y="-608" font-family="IBM Plex Mono" font-size="7.00" fill="#33454f">&#45; kind : VARCHAR(20)</text>
<text xml:space="preserve" text-anchor="start" x="321.5" y="-595.75" font-family="IBM Plex Mono" font-size="7.00" fill="#33454f">&#45; status : VARCHAR(20)</text>
<text xml:space="preserve" text-anchor="start" x="321.5" y="-583.5" font-family="IBM Plex Mono" font-size="7.00" fill="#33454f">&#45; attempts : INTEGER</text>
<text xml:space="preserve" text-anchor="start" x="321.5" y="-571.25" font-family="IBM Plex Mono" font-size="7.00" fill="#33454f">&#45; error_text : TEXT</text>
<text xml:space="preserve" text-anchor="start" x="321.5" y="-559" font-family="IBM Plex Mono" font-size="7.00" fill="#33454f">&#45; updated_at : DATETIME</text>
</g>
<!-- analysis_job&#45;&gt;session -->
<g id="edge16" class="edge">
<title>analysis_job&#45;&gt;session</title>
<path fill="none" stroke="#325f7f" d="M366.12,-539.33C366.12,-539.33 366.12,-497.43 366.12,-497.43"/>
<polygon fill="#325f7f" stroke="#325f7f" points="366.13,-539.43 361.63,-549.43 366.13,-544.77 366.13,-549.1 366.13,-549.1 366.13,-549.1 366.13,-544.77 370.63,-549.43 366.13,-539.43"/>
<ellipse fill="none" stroke="#325f7f" cx="366.13" cy="-492.93" rx="4" ry="4"/>
</g>
</g>
</svg>
